<svg id="Layer_1" data-name="Layer 1" xmlns="http://www.w3.org/2000/svg" width="250" height="250" viewBox="0 0 250 250">
  <defs>
    <style>
      .cls-1 {
        fill: #fff;
      }

      .cls-2 {
        fill: #355bbc;
      }

      .cls-3 {
        fill: #052a98;
      }

      .cls-4 {
        fill: #f5a126;
      }
    </style>
  </defs>
  <title>giaphong-logo</title>
  <g>
    <g>
      <rect class="cls-1" x="2.5" y="2.5" width="245" height="245" rx="20.5" ry="20.5"/>
      <path class="cls-2" d="M227,5a18,18,0,0,1,18,18V227a18,18,0,0,1-18,18H23A18,18,0,0,1,5,227V23A18,18,0,0,1,23,5H227m0-5H23A23.07,23.07,0,0,0,0,23V227a23.07,23.07,0,0,0,23,23H227a23.07,23.07,0,0,0,23-23V23A23.07,23.07,0,0,0,227,0Z" transform="translate(0 0)"/>
    </g>
    <path class="cls-3" d="M40.79,196.28s131.14-38.7,143.68-15.05c3.94,9.31-5.38,15.05-5.38,15.05s27.59-15.77,22.22-25.08C188.77,151.13,81.64,175.14,40.79,196.28Z" transform="translate(0 0)"/>
    <rect class="cls-3" x="114.12" y="61.26" width="9.76" height="111.96"/>
    <rect class="cls-3" x="96.09" y="142.39" width="9.76" height="27.75"/>
    <path class="cls-3" d="M104.4,64.11S75.93,86.88,77.83,119.38s19.93,48.39,19.93,48.39-57.95-5.93-57-55.51S104.4,64.11,104.4,64.11Z" transform="translate(0 0)"/>
    <path class="cls-3" d="M117,25.68S148.75,62.45,145.91,98s-22,42.93-22,42.93,63.29,7.59,64.48-40.08S141.64,33,117,25.68Z" transform="translate(0 0)"/>
    <circle class="cls-4" cx="209.24" cy="38.11" r="26"/>
    <path class="cls-3" d="M199.09,47.05s12.77-13.34,25.74-1.52c-12.87-4.89-22.69,5.72-22.69,5.72h-7.25S183.64,33.32,169,36c14.87-11.45,27.84,10.68,27.84,10.68Z" transform="translate(0 0)"/>
    <path class="cls-3" d="M194.64,31.58s8-8.33,16.08-.95c-8-3.05-14.17,3.57-14.17,3.57H192S185,23,175.83,24.68c9.29-7.16,17.38,6.67,17.38,6.67Z" transform="translate(0 0)"/>
    <path class="cls-2" d="M242.76,211.39A12.25,12.25,0,0,1,232,205.05a12.23,12.23,0,0,1-21.44,0,12.24,12.24,0,0,1-21.45,0,12.24,12.24,0,0,1-21.45,0,12.23,12.23,0,0,1-21.44,0,12.24,12.24,0,0,1-21.45,0,12.23,12.23,0,0,1-21.44,0,12.24,12.24,0,0,1-21.45,0,12.23,12.23,0,0,1-21.44,0,12.24,12.24,0,0,1-21.45,0,12.24,12.24,0,0,1-21.45,0A12.23,12.23,0,0,1,0,209.29v19.63A21.15,21.15,0,0,0,21.08,250H228.92A21.15,21.15,0,0,0,250,228.92V209A12.2,12.2,0,0,1,242.76,211.39Z" transform="translate(0 0)"/>
    <g>
      <path class="cls-1" d="M22.52,228.39H27v5.87a12.68,12.68,0,0,1-2.05.5,14.27,14.27,0,0,1-2,.14,5,5,0,0,1-3.92-1.51,6.25,6.25,0,0,1-1.35-4.32,5.71,5.71,0,0,1,1.57-4.28,6,6,0,0,1,4.35-1.53A8.33,8.33,0,0,1,27,224l-.8,1.92a5.63,5.63,0,0,0-2.58-.62,3.19,3.19,0,0,0-2.49,1,4.06,4.06,0,0,0-.94,2.82,4.48,4.48,0,0,0,.76,2.81,2.59,2.59,0,0,0,2.19,1,8.09,8.09,0,0,0,1.53-.15v-2.36H22.52Z" transform="translate(0 0)"/>
      <path class="cls-1" d="M32.88,234.75V223.42h2.4v11.33Z" transform="translate(0 0)"/>
      <path class="cls-1" d="M48.24,234.75l-.82-2.7H43.29l-.82,2.7H39.88l4-11.37h2.93l4,11.37ZM46.84,230c-.76-2.45-1.18-3.83-1.28-4.15s-.16-.57-.2-.76c-.17.67-.66,2.3-1.47,4.91Z" transform="translate(0 0)"/>
      <path class="cls-1" d="M70.54,227a3.48,3.48,0,0,1-1.14,2.8,4.89,4.89,0,0,1-3.25,1h-1v4h-2.4V223.42h3.61a4.79,4.79,0,0,1,3.13.89A3.21,3.21,0,0,1,70.54,227Zm-5.42,1.8h.79a2.56,2.56,0,0,0,1.65-.44,1.51,1.51,0,0,0,.55-1.27,1.57,1.57,0,0,0-.46-1.25,2.14,2.14,0,0,0-1.44-.4H65.12Z" transform="translate(0 0)"/>
      <path class="cls-1" d="M85.13,234.75h-2.4v-4.89H78.25v4.89h-2.4V223.42h2.4v4.44h4.48v-4.44h2.4Z" transform="translate(0 0)"/>
      <path class="cls-1" d="M101.44,229.07a6.15,6.15,0,0,1-1.4,4.32,6,6,0,0,1-8,0,6.17,6.17,0,0,1-1.4-4.34,6.07,6.07,0,0,1,1.4-4.31,5.21,5.21,0,0,1,4-1.5,5.16,5.16,0,0,1,4,1.51A6.16,6.16,0,0,1,101.44,229.07Zm-8.27,0a4.75,4.75,0,0,0,.72,2.86,2.52,2.52,0,0,0,2.15,1c1.92,0,2.88-1.28,2.88-3.82s-1-3.83-2.86-3.83a2.51,2.51,0,0,0-2.16,1A4.66,4.66,0,0,0,93.17,229.07Z" transform="translate(0 0)"/>
      <path class="cls-1" d="M117,234.75h-3L109,226.18H109q.15,2.26.15,3.24v5.33H107V223.42h3l4.92,8.48H115q-.12-2.21-.12-3.12v-5.36H117Z" transform="translate(0 0)"/>
      <path class="cls-1" d="M127.32,228.39h4.49v5.87a12.68,12.68,0,0,1-2.05.5,14.27,14.27,0,0,1-2,.14,5,5,0,0,1-3.92-1.51,6.25,6.25,0,0,1-1.35-4.32,5.71,5.71,0,0,1,1.57-4.28,6,6,0,0,1,4.35-1.53,8.33,8.33,0,0,1,3.36.7l-.8,1.92a5.63,5.63,0,0,0-2.58-.62,3.19,3.19,0,0,0-2.49,1,4.06,4.06,0,0,0-.94,2.82,4.54,4.54,0,0,0,.75,2.81,2.62,2.62,0,0,0,2.2,1,8.09,8.09,0,0,0,1.53-.15v-2.36h-2.15Z" transform="translate(0 0)"/>
      <path class="cls-1" d="M149.34,234.75h-2.4v-9.33h-3.07v-2h8.55v2h-3.08Z" transform="translate(0 0)"/>
      <path class="cls-1" d="M167.61,229.07a6.15,6.15,0,0,1-1.39,4.32,6.05,6.05,0,0,1-8,0,6.17,6.17,0,0,1-1.39-4.34,6.07,6.07,0,0,1,1.4-4.31,5.21,5.21,0,0,1,4-1.5,5.16,5.16,0,0,1,4,1.51A6.16,6.16,0,0,1,167.61,229.07Zm-8.26,0a4.75,4.75,0,0,0,.72,2.86,2.51,2.51,0,0,0,2.15,1c1.92,0,2.87-1.28,2.87-3.82s-1-3.83-2.85-3.83a2.54,2.54,0,0,0-2.17,1A4.73,4.73,0,0,0,159.35,229.07Z" transform="translate(0 0)"/>
      <path class="cls-1" d="M182.35,223.42v7.33a4.26,4.26,0,0,1-.56,2.2,3.72,3.72,0,0,1-1.63,1.45,5.85,5.85,0,0,1-2.51.5,4.8,4.8,0,0,1-3.39-1.12,4,4,0,0,1-1.21-3.06v-7.3h2.4v6.93a2.88,2.88,0,0,0,.52,1.92,2.19,2.19,0,0,0,1.75.62,2.13,2.13,0,0,0,1.7-.62,2.87,2.87,0,0,0,.53-1.93v-6.92Z" transform="translate(0 0)"/>
      <path class="cls-1" d="M190.69,230.4v4.35h-2.4V223.42h3.3a5.66,5.66,0,0,1,3.42.84,3,3,0,0,1,1.11,2.55,3.05,3.05,0,0,1-.55,1.78,3.64,3.64,0,0,1-1.56,1.22c1.7,2.55,2.81,4.19,3.33,4.94h-2.67L192,230.4Zm0-2h.78a3,3,0,0,0,1.68-.38,1.35,1.35,0,0,0,.54-1.19,1.24,1.24,0,0,0-.55-1.15,3.34,3.34,0,0,0-1.72-.34h-.73Z" transform="translate(0 0)"/>
      <path class="cls-1" d="M201.94,234.75V223.42h2.4v11.33Z" transform="translate(0 0)"/>
      <path class="cls-1" d="M217,231.6a2.92,2.92,0,0,1-1.1,2.42,4.77,4.77,0,0,1-3.07.88,7.28,7.28,0,0,1-3.21-.68V232a13.59,13.59,0,0,0,1.94.72,5.77,5.77,0,0,0,1.46.21,2.08,2.08,0,0,0,1.21-.3,1,1,0,0,0,.42-.9,1,1,0,0,0-.19-.6,2,2,0,0,0-.54-.49,13.59,13.59,0,0,0-1.47-.77,7.29,7.29,0,0,1-1.56-.94,3.77,3.77,0,0,1-.83-1,3.1,3.1,0,0,1-.31-1.4,2.92,2.92,0,0,1,1-2.36,4.26,4.26,0,0,1,2.82-.86,6.55,6.55,0,0,1,1.68.21,10.58,10.58,0,0,1,1.68.59l-.77,1.86a13.76,13.76,0,0,0-1.5-.52,5.34,5.34,0,0,0-1.17-.14,1.49,1.49,0,0,0-1,.32,1.1,1.1,0,0,0-.22,1.38,1.59,1.59,0,0,0,.47.46,15.28,15.28,0,0,0,1.52.79,6.17,6.17,0,0,1,2.18,1.52A3,3,0,0,1,217,231.6Z" transform="translate(0 0)"/>
      <path class="cls-1" d="M226.64,234.75h-2.4v-9.33h-3.08v-2h8.55v2h-3.07Z" transform="translate(0 0)"/>
    </g>
  </g>
</svg>
