<svg id="Layer_1" data-name="Layer 1" xmlns="http://www.w3.org/2000/svg" width="250" height="250" viewBox="0 0 250 250"><title>logo</title><rect x="2.5" y="2.5" width="245" height="245" rx="20.5" fill="#fff"/><path d="M227,5a18,18,0,0,1,18,18V227a18,18,0,0,1-18,18H23A18,18,0,0,1,5,227V23A18,18,0,0,1,23,5H227m0-5H23A23.07,23.07,0,0,0,0,23V227a23.07,23.07,0,0,0,23,23H227a23.07,23.07,0,0,0,23-23V23A23.07,23.07,0,0,0,227,0Z" fill="#355bbc"/><path d="M40.79,196.28s131.14-38.7,143.68-15.05c3.94,9.31-5.38,15.05-5.38,15.05s27.59-15.77,22.22-25.08C188.77,151.13,81.64,175.14,40.79,196.28Z" fill="#052a98"/><rect x="114.12" y="61.26" width="9.76" height="111.96" fill="#052a98"/><rect x="96.1" y="142.39" width="9.76" height="27.75" fill="#052a98"/><path d="M104.4,64.11S75.93,86.88,77.83,119.38s19.93,48.39,19.93,48.39-57.95-5.93-57-55.51S104.4,64.11,104.4,64.11Z" fill="#052a98"/><path d="M117,25.68S148.75,62.45,145.91,98s-22,42.93-22,42.93,63.29,7.59,64.48-40.08S141.64,33,117,25.68Z" fill="#052a98"/><circle cx="209.24" cy="38.11" r="26" fill="#f5a126"/><path d="M199.09,47.05s12.77-13.34,25.74-1.52c-12.87-4.89-22.69,5.72-22.69,5.72h-7.25S183.64,33.32,169,36c14.87-11.45,27.84,10.68,27.84,10.68Z" fill="#052a98"/><path d="M194.64,31.58s8-8.33,16.08-.95c-8-3.05-14.17,3.57-14.17,3.57H192S185,23,175.83,24.68c9.29-7.16,17.38,6.67,17.38,6.67Z" fill="#052a98"/><path d="M242.76,211.39A12.25,12.25,0,0,1,232,205.05a12.23,12.23,0,0,1-21.44,0,12.24,12.24,0,0,1-21.45,0,12.24,12.24,0,0,1-21.45,0,12.23,12.23,0,0,1-21.44,0,12.24,12.24,0,0,1-21.45,0,12.23,12.23,0,0,1-21.44,0,12.24,12.24,0,0,1-21.45,0,12.23,12.23,0,0,1-21.44,0,12.24,12.24,0,0,1-21.45,0,12.24,12.24,0,0,1-21.45,0A12.23,12.23,0,0,1,0,209.29v19.63A21.15,21.15,0,0,0,21.08,250H228.92A21.15,21.15,0,0,0,250,228.92V209A12.2,12.2,0,0,1,242.76,211.39Z" fill="#355bbc"/><path d="M27.65,225.55a3,3,0,0,1,0,.45c0,.13,0,.23-.06.31a.34.34,0,0,1-.1.16.24.24,0,0,1-.15,0,.86.86,0,0,1-.38-.16,5.74,5.74,0,0,0-.71-.36,9,9,0,0,0-1-.35,5.47,5.47,0,0,0-1.42-.17,3.86,3.86,0,0,0-1.55.3,3.38,3.38,0,0,0-1.19.84,3.77,3.77,0,0,0-.76,1.31,5,5,0,0,0-.27,1.69,5.43,5.43,0,0,0,.27,1.79,3.74,3.74,0,0,0,.76,1.29,3.07,3.07,0,0,0,1.17.79,4,4,0,0,0,1.5.26,3.63,3.63,0,0,0,.8-.09,3,3,0,0,0,.73-.27v-2.75H23a.29.29,0,0,1-.26-.2,1.93,1.93,0,0,1-.09-.7c0-.17,0-.32,0-.43a1.26,1.26,0,0,1,.07-.28.5.5,0,0,1,.11-.16.25.25,0,0,1,.15-.05h4a.75.75,0,0,1,.26.05,1,1,0,0,1,.2.15.66.66,0,0,1,.13.25,1,1,0,0,1,.05.32v4.71a1.14,1.14,0,0,1-.1.48.69.69,0,0,1-.39.33,7.22,7.22,0,0,1-.74.24,8.63,8.63,0,0,1-.91.22,7.5,7.5,0,0,1-.95.14c-.32,0-.64.05-1,.05a7.48,7.48,0,0,1-2.54-.41A5,5,0,0,1,18,232.27a7.08,7.08,0,0,1-.42-2.52,7.36,7.36,0,0,1,.44-2.61,5.58,5.58,0,0,1,1.25-2,5.24,5.24,0,0,1,1.94-1.25,7.32,7.32,0,0,1,2.54-.42,8.61,8.61,0,0,1,1.4.1,7.79,7.79,0,0,1,1.1.26,4.76,4.76,0,0,1,.79.32,2.49,2.49,0,0,1,.43.3.87.87,0,0,1,.18.36A3.18,3.18,0,0,1,27.65,225.55Z" fill="#fff"/><path d="M36.26,235.22a.25.25,0,0,1-.06.16.38.38,0,0,1-.2.12,2.08,2.08,0,0,1-.36.07,4.8,4.8,0,0,1-.59,0,4.73,4.73,0,0,1-.58,0,2.23,2.23,0,0,1-.37-.07.43.43,0,0,1-.2-.12.25.25,0,0,1-.06-.16V224a.25.25,0,0,1,.06-.17.42.42,0,0,1,.21-.12,2,2,0,0,1,.37-.07,4.45,4.45,0,0,1,.57,0,4.8,4.8,0,0,1,.59,0,2.08,2.08,0,0,1,.36.07.38.38,0,0,1,.2.12.25.25,0,0,1,.06.17Z" fill="#fff"/><path d="M52.29,234.65a3.53,3.53,0,0,1,.13.52.31.31,0,0,1-.07.29.69.69,0,0,1-.36.12l-.7,0h-.73a1.79,1.79,0,0,1-.4-.06.32.32,0,0,1-.19-.11.84.84,0,0,1-.09-.19l-.8-2.38H44.64l-.75,2.31a.9.9,0,0,1-.1.22.4.4,0,0,1-.19.13,1.12,1.12,0,0,1-.38.07l-.63,0a5.62,5.62,0,0,1-.66,0,.51.51,0,0,1-.33-.13.36.36,0,0,1-.06-.3,2.52,2.52,0,0,1,.13-.51l3.65-10.5a.83.83,0,0,1,.13-.25.42.42,0,0,1,.24-.15,1.55,1.55,0,0,1,.44-.06l.75,0,.86,0a2.06,2.06,0,0,1,.5.06.41.41,0,0,1,.25.15.86.86,0,0,1,.14.27ZM46.85,226h0l-1.67,5h3.36Z" fill="#fff"/><path d="M73.78,227.3a4.62,4.62,0,0,1-.31,1.77,3.4,3.4,0,0,1-.91,1.29,3.92,3.92,0,0,1-1.45.8,6.58,6.58,0,0,1-2,.28h-1v3.78a.25.25,0,0,1-.06.16.38.38,0,0,1-.2.12,2.08,2.08,0,0,1-.36.07,4.68,4.68,0,0,1-.59,0,4.73,4.73,0,0,1-.58,0,2.23,2.23,0,0,1-.37-.07.39.39,0,0,1-.19-.12.25.25,0,0,1-.06-.16V224.57a.86.86,0,0,1,.23-.65.82.82,0,0,1,.59-.21h2.79c.28,0,.55,0,.8,0a8.2,8.2,0,0,1,.91.14,4.51,4.51,0,0,1,1.08.38A3.13,3.13,0,0,1,73,225a2.88,2.88,0,0,1,.59,1A4.08,4.08,0,0,1,73.78,227.3Zm-2.51.18a2.21,2.21,0,0,0-.22-1,1.49,1.49,0,0,0-.54-.59,1.93,1.93,0,0,0-.68-.25,5.55,5.55,0,0,0-.72-.05h-1v4h1.08a2.75,2.75,0,0,0,1-.15,1.62,1.62,0,0,0,.63-.44,1.92,1.92,0,0,0,.38-.67A2.84,2.84,0,0,0,71.27,227.48Z" fill="#fff"/><path d="M88.64,235.22a.25.25,0,0,1-.06.16.43.43,0,0,1-.2.12,2.08,2.08,0,0,1-.36.07,4.73,4.73,0,0,1-.58,0,4.68,4.68,0,0,1-.59,0,2,2,0,0,1-.37-.07.39.39,0,0,1-.19-.12.25.25,0,0,1-.06-.16v-4.79H81.8v4.79a.3.3,0,0,1,0,.16.39.39,0,0,1-.19.12,2.45,2.45,0,0,1-.37.07,4.68,4.68,0,0,1-.59,0,4.73,4.73,0,0,1-.58,0,2.23,2.23,0,0,1-.37-.07.39.39,0,0,1-.19-.12.25.25,0,0,1-.06-.16V224a.25.25,0,0,1,.06-.17.39.39,0,0,1,.19-.12,2.23,2.23,0,0,1,.37-.07,4.73,4.73,0,0,1,.58,0,4.68,4.68,0,0,1,.59,0,2.45,2.45,0,0,1,.37.07.39.39,0,0,1,.19.12.31.31,0,0,1,0,.17v4.34h4.43V224a.25.25,0,0,1,.06-.17.39.39,0,0,1,.19-.12,2,2,0,0,1,.37-.07,4.68,4.68,0,0,1,.59,0,4.73,4.73,0,0,1,.58,0,2.08,2.08,0,0,1,.36.07.43.43,0,0,1,.2.12.25.25,0,0,1,.06.17Z" fill="#fff"/><path d="M105.62,229.49a8.84,8.84,0,0,1-.37,2.63,5.28,5.28,0,0,1-1.09,2,4.63,4.63,0,0,1-1.79,1.23,6.67,6.67,0,0,1-2.46.43,7,7,0,0,1-2.41-.37,4.11,4.11,0,0,1-1.72-1.1,4.67,4.67,0,0,1-1-1.88,9.46,9.46,0,0,1-.34-2.71,8.67,8.67,0,0,1,.36-2.59,5.45,5.45,0,0,1,1.09-2,4.63,4.63,0,0,1,1.79-1.23,6.54,6.54,0,0,1,2.48-.43,7.21,7.21,0,0,1,2.37.35,4.21,4.21,0,0,1,1.72,1.1,4.72,4.72,0,0,1,1,1.87A8.85,8.85,0,0,1,105.62,229.49Zm-2.53.13a8.81,8.81,0,0,0-.15-1.7,3.58,3.58,0,0,0-.49-1.31,2.46,2.46,0,0,0-.94-.84,3.21,3.21,0,0,0-1.47-.3,2.92,2.92,0,0,0-1.48.34,2.65,2.65,0,0,0-1,.89,3.77,3.77,0,0,0-.52,1.3,8.07,8.07,0,0,0-.15,1.58,9.1,9.1,0,0,0,.15,1.74,3.88,3.88,0,0,0,.49,1.33,2.35,2.35,0,0,0,.94.83,3.21,3.21,0,0,0,1.47.29,3,3,0,0,0,1.48-.33,2.65,2.65,0,0,0,1-.89,3.67,3.67,0,0,0,.52-1.33A8.2,8.2,0,0,0,103.09,229.62Z" fill="#fff"/><path d="M121.15,234.7a.92.92,0,0,1-.08.38.66.66,0,0,1-.19.27.64.64,0,0,1-.29.16,1.06,1.06,0,0,1-.35.05h-1a2.29,2.29,0,0,1-.56-.06,1.13,1.13,0,0,1-.43-.23,2.66,2.66,0,0,1-.38-.46c-.12-.19-.25-.44-.41-.75l-2.94-5.53c-.17-.33-.35-.69-.52-1.07s-.34-.75-.48-1.11h0c0,.44,0,.88.06,1.31s0,.89,0,1.35v6.2a.24.24,0,0,1,0,.16.4.4,0,0,1-.17.13,1.68,1.68,0,0,1-.33.07,4,4,0,0,1-.54,0,3.79,3.79,0,0,1-.53,0,1.53,1.53,0,0,1-.33-.07.4.4,0,0,1-.17-.13.29.29,0,0,1,0-.16V224.57a.8.8,0,0,1,.25-.65.9.9,0,0,1,.61-.21h1.29a2.43,2.43,0,0,1,.59.06,1.28,1.28,0,0,1,.43.19,1.63,1.63,0,0,1,.35.38,5.13,5.13,0,0,1,.34.6l2.3,4.33.4.77.38.76.36.75.34.73h0c0-.43,0-.87,0-1.34s0-.9,0-1.32v-5.56a.3.3,0,0,1,0-.16.48.48,0,0,1,.19-.13,1.21,1.21,0,0,1,.34-.08l.54,0,.52,0a1,1,0,0,1,.32.08.36.36,0,0,1,.16.13.3.3,0,0,1,.05.16Z" fill="#fff"/><path d="M137,225.55a3,3,0,0,1,0,.45,1.7,1.7,0,0,1-.06.31.34.34,0,0,1-.1.16.24.24,0,0,1-.15,0,.91.91,0,0,1-.38-.16,6.29,6.29,0,0,0-.7-.36,9.9,9.9,0,0,0-1.05-.35,5.47,5.47,0,0,0-1.42-.17,3.86,3.86,0,0,0-1.55.3,3.38,3.38,0,0,0-1.19.84,3.77,3.77,0,0,0-.76,1.31,5,5,0,0,0-.27,1.69,5.43,5.43,0,0,0,.27,1.79,3.74,3.74,0,0,0,.76,1.29,3.07,3.07,0,0,0,1.17.79,4,4,0,0,0,1.5.26,3.63,3.63,0,0,0,.8-.09,3,3,0,0,0,.73-.27v-2.75h-2.24a.29.29,0,0,1-.26-.2,1.93,1.93,0,0,1-.09-.7c0-.17,0-.32,0-.43a1.26,1.26,0,0,1,.07-.28.5.5,0,0,1,.11-.16.25.25,0,0,1,.15-.05h4a.75.75,0,0,1,.26.05,1,1,0,0,1,.2.15.66.66,0,0,1,.13.25,1,1,0,0,1,0,.32v4.71a1.14,1.14,0,0,1-.1.48.69.69,0,0,1-.39.33,7.22,7.22,0,0,1-.74.24,8.63,8.63,0,0,1-.91.22,7.5,7.5,0,0,1-.95.14c-.32,0-.64.05-1,.05a7.48,7.48,0,0,1-2.54-.41,5,5,0,0,1-3.08-3.07,7.08,7.08,0,0,1-.42-2.52,7.36,7.36,0,0,1,.44-2.61,5.58,5.58,0,0,1,1.25-2,5.24,5.24,0,0,1,1.94-1.25,7.32,7.32,0,0,1,2.54-.42,8.61,8.61,0,0,1,1.4.1,7.79,7.79,0,0,1,1.1.26,4.76,4.76,0,0,1,.79.32,2.49,2.49,0,0,1,.43.3.87.87,0,0,1,.18.36A3.18,3.18,0,0,1,137,225.55Z" fill="#fff"/><path d="M159,224.69a3,3,0,0,1,0,.46,1.13,1.13,0,0,1-.06.3.46.46,0,0,1-.12.17.2.2,0,0,1-.15,0h-3v9.55a.25.25,0,0,1-.06.16.43.43,0,0,1-.2.12,2.23,2.23,0,0,1-.37.07,4.73,4.73,0,0,1-.58,0,4.62,4.62,0,0,1-.58,0,2,2,0,0,1-.37-.07.38.38,0,0,1-.2-.12.25.25,0,0,1-.06-.16v-9.55h-3a.21.21,0,0,1-.16,0,.45.45,0,0,1-.11-.17,1.67,1.67,0,0,1-.07-.3c0-.13,0-.28,0-.46s0-.33,0-.46a1.61,1.61,0,0,1,.07-.31.34.34,0,0,1,.11-.16.21.21,0,0,1,.16,0h8.34a.2.2,0,0,1,.15,0,.35.35,0,0,1,.12.16,1.13,1.13,0,0,1,.06.31A3,3,0,0,1,159,224.69Z" fill="#fff"/><path d="M173,235.23a.29.29,0,0,1,0,.17.26.26,0,0,1-.17.12,1.7,1.7,0,0,1-.4.06l-.73,0-.61,0a1.09,1.09,0,0,1-.36-.07.39.39,0,0,1-.19-.12.66.66,0,0,1-.09-.19l-1.06-2.65c-.13-.29-.26-.56-.38-.79a2.68,2.68,0,0,0-.4-.58,1.52,1.52,0,0,0-.52-.36,2,2,0,0,0-.68-.11h-.75v4.51a.25.25,0,0,1-.06.16.38.38,0,0,1-.2.12,2.08,2.08,0,0,1-.36.07,4.68,4.68,0,0,1-.59,0,4.73,4.73,0,0,1-.58,0,2.23,2.23,0,0,1-.37-.07.39.39,0,0,1-.19-.12.25.25,0,0,1-.06-.16V224.47a.74.74,0,0,1,.21-.59.8.8,0,0,1,.51-.17h3.83l.55.05a4.87,4.87,0,0,1,1.29.35,3.15,3.15,0,0,1,1,.64,2.75,2.75,0,0,1,.6,1,3.19,3.19,0,0,1,.22,1.24,3.72,3.72,0,0,1-.16,1.09,2.55,2.55,0,0,1-.44.87,2.89,2.89,0,0,1-.72.67,4.21,4.21,0,0,1-1,.46,2.6,2.6,0,0,1,.5.31,3,3,0,0,1,.44.44q.19.27.39.6a6.62,6.62,0,0,1,.35.75l1,2.34c.09.23.15.4.18.5A1.08,1.08,0,0,1,173,235.23Zm-3.1-8a1.74,1.74,0,0,0-.27-1,1.45,1.45,0,0,0-.87-.56l-.41-.08a5.84,5.84,0,0,0-.65,0h-1.08v3.35h1.23a3,3,0,0,0,.89-.12,1.71,1.71,0,0,0,.64-.35,1.43,1.43,0,0,0,.39-.53A1.94,1.94,0,0,0,169.86,227.2Z" fill="#fff"/><path d="M188.17,234.65a3.81,3.81,0,0,1,.14.52.31.31,0,0,1-.08.29.61.61,0,0,1-.35.12l-.71,0h-.72a1.61,1.61,0,0,1-.4-.06.29.29,0,0,1-.19-.11.56.56,0,0,1-.09-.19l-.8-2.38h-4.45l-.75,2.31a.63.63,0,0,1-.09.22.44.44,0,0,1-.2.13,1.05,1.05,0,0,1-.37.07l-.64,0a5.62,5.62,0,0,1-.66,0,.53.53,0,0,1-.33-.13.36.36,0,0,1-.06-.3,2.69,2.69,0,0,1,.14-.51l3.65-10.5a.65.65,0,0,1,.13-.25.39.39,0,0,1,.23-.15,1.6,1.6,0,0,1,.44-.06l.75,0,.86,0a2,2,0,0,1,.5.06.44.44,0,0,1,.26.15,1.13,1.13,0,0,1,.13.27ZM182.74,226h0l-1.68,5h3.36Z" fill="#fff"/><path d="M198.51,235.13a.83.83,0,0,1-.12.25.46.46,0,0,1-.24.14,1.63,1.63,0,0,1-.45.07h-1.37c-.17,0-.32,0-.44,0l-.3,0-.19-.09a.41.41,0,0,1-.12-.14,1.21,1.21,0,0,1-.08-.19l-3.52-10.5a2.59,2.59,0,0,1-.13-.52.29.29,0,0,1,.09-.29.81.81,0,0,1,.39-.12l.77,0,.66,0a1.4,1.4,0,0,1,.36.06.3.3,0,0,1,.18.14,1.74,1.74,0,0,1,.1.23l2.88,9.13h0l2.83-9.08a.79.79,0,0,1,.09-.26.39.39,0,0,1,.18-.15,1.52,1.52,0,0,1,.38-.07l.68,0a5.62,5.62,0,0,1,.66,0,.5.5,0,0,1,.32.13.4.4,0,0,1,.05.3,3.4,3.4,0,0,1-.14.51Z" fill="#fff"/><path d="M214.46,234.6c0,.18,0,.33,0,.45a1.54,1.54,0,0,1-.07.29.4.4,0,0,1-.12.16.25.25,0,0,1-.15.05h-5.94a.72.72,0,0,1-.51-.18.73.73,0,0,1-.21-.58V224.47a.74.74,0,0,1,.21-.59.77.77,0,0,1,.51-.17h5.91a.23.23,0,0,1,.14,0,.33.33,0,0,1,.11.16,1.11,1.11,0,0,1,.07.3,2.83,2.83,0,0,1,0,.45,2.75,2.75,0,0,1,0,.43,1,1,0,0,1-.07.29.33.33,0,0,1-.11.16.24.24,0,0,1-.14.05h-4.23v2.89h3.58a.3.3,0,0,1,.15.05.5.5,0,0,1,.11.16.88.88,0,0,1,.07.28,4.85,4.85,0,0,1,0,.88,1,1,0,0,1-.07.28.45.45,0,0,1-.11.15.28.28,0,0,1-.15,0h-3.58v3.34h4.26a.25.25,0,0,1,.15.05.4.4,0,0,1,.12.16,1.37,1.37,0,0,1,.07.29C214.45,234.28,214.46,234.43,214.46,234.6Z" fill="#fff"/><path d="M226.84,234.54a3,3,0,0,1,0,.46.84.84,0,0,1-.07.31.4.4,0,0,1-.11.18.25.25,0,0,1-.16.06H221a.71.71,0,0,1-.5-.18.73.73,0,0,1-.21-.58V224a.25.25,0,0,1,.06-.17.43.43,0,0,1,.2-.12,2,2,0,0,1,.37-.07,4.62,4.62,0,0,1,.58,0,4.51,4.51,0,0,1,.58,0,2,2,0,0,1,.37.07.43.43,0,0,1,.2.12.25.25,0,0,1,.06.17v9.52h3.72a.3.3,0,0,1,.16.05.32.32,0,0,1,.11.17.73.73,0,0,1,.07.3A3,3,0,0,1,226.84,234.54Z" fill="#fff"/></svg>